<?xml version="1.0" encoding="utf-8"?>
<!-- Generator: Adobe Illustrator 27.2.0, SVG Export Plug-In . SVG Version: 6.00 Build 0)  -->
<svg version="1.1" id="Ebene_1" xmlns="http://www.w3.org/2000/svg" xmlns:xlink="http://www.w3.org/1999/xlink" x="0px" y="0px"
	 viewBox="0 0 65.3 48.7" style="enable-background:new 0 0 65.3 48.7;" xml:space="preserve">
<style type="text/css">
	.st0{fill:#4973FF;}
</style>
<g id="Ebene_2_00000105398573599469538280000018297657422735004295_">
	<g id="Ebene_1-2">
		<path class="st0" d="M42.9,34.8l-1.6,1.6l-0.5,0.5c-0.7,0.7-1.8,0.9-2.8,0.6c-0.7-0.2-1.4-0.5-2-0.8c-0.8-0.5-1.5-1.1-2-1.8
			c-5.7,5.2-14.5,4.7-19.7-1s-4.7-14.5,1-19.7c3.4-3.1,8.2-4.3,12.7-3.2c0-0.2,0-0.4,0.1-0.6c0.2-0.7,0.5-1.3,0.8-1.9
			c1.2-1.9,2.7-2.8,4.1-2.4L33.7,6L36,6.7c0.2-1.4,0.5-3.2,0.5-3.2c0.1-1-1.3-1.8-2.2-2.2s-2.5-0.8-3.1,0c0,0-2.7,3.8-3,4
			s-0.6,0.4-1.3,0.4h-0.1h-0.9h-0.2c-0.7-0.2-1-0.3-1.2-0.6s-2.4-4.4-2.4-4.4c-0.5-0.9-2.1-0.7-3.1-0.5S16.4,1,16.3,2c0,0,0,4.7,0,5
			s-0.2,0.7-0.8,1.1l-0.1,0.1l-0.7,0.5l-0.2,0.1c-0.7,0.3-1,0.4-1.4,0.2S8.6,6.9,8.6,6.9C7.6,6.5,6.4,7.6,5.8,8.3s-1.5,2.1-1,3
			c0,0,2.7,3.8,2.9,4.1s0.2,0.7,0,1.4v0.1l-0.3,0.8L7.3,18c-0.4,0.6-0.6,0.9-1,1s-4.9,0.9-4.9,0.9c-1,0.2-1.3,1.8-1.4,2.7s0,2.6,1,3
			c0,0,4.4,1.5,4.8,1.6s0.6,0.4,0.8,1.1v0.1l0.2,0.9v0.2c0.1,0.5,0,1-0.2,1.4c-0.2,0.3-3.5,3.6-3.5,3.6c-0.7,0.7,0,2.2,0.5,3.1
			s1.6,2.1,2.5,1.8c0,0,4.4-1.4,4.8-1.5c0.5,0,1,0.1,1.3,0.4l0.1,0.1l0.7,0.5l0.1,0.1c0.5,0.5,0.6,0.9,0.6,1.2s-0.7,5-0.7,5
			c-0.1,1,1.3,1.8,2.2,2.2l0,0c0.9,0.4,2.5,0.8,3.1,0c0,0,2.8-3.8,3-4s0.6-0.4,1.3-0.5H23h0.9H24c0.7,0.2,1,0.3,1.2,0.6
			s2.5,4.3,2.5,4.3c0.5,0.9,2.1,0.7,3.1,0.5l0,0c1-0.2,2.5-0.8,2.5-1.8c0,0,0-4.7,0-5s0.2-0.7,0.8-1.1l0.1-0.1l0.7-0.5l0.2-0.1
			c0.4-0.3,0.9-0.3,1.4-0.2c0.3,0.1,4.5,2.2,4.5,2.2c0.9,0.4,2.1-0.7,2.8-1.4s1.5-2.1,1-3C44.8,37.4,43.8,36,42.9,34.8z"/>
		<path class="st0" d="M63.5,12.1c-1.5,0-4.6,0-4.8,0c-0.5-0.1-1-0.5-1.3-0.9c-0.4-0.4-0.6-1-0.5-1.5c0.1-0.3,1-3.3,1.3-4.2L58.2,5
			c0.2-0.7-0.7-1.6-1.7-2.2s-2.2-1-2.8-0.5l-0.3,0.3c-0.8,0.8-2.9,2.9-3.1,3.1c-0.5,0.3-1.1,0.4-1.6,0.2c-0.6,0-1.1-0.3-1.4-0.7
			C47.1,5,45.7,2.2,45,1c-0.5-0.9-2.4-0.5-2.8-0.4S40,1.2,39.9,2.2c0,1.5,0,4.6,0,4.8c-0.1,0.5-0.5,1-0.9,1.3
			c-0.4,0.4-1,0.6-1.5,0.5c-0.3,0-3.2-0.9-4.2-1.3l-0.4-0.1c-0.7-0.2-1.6,0.7-2.2,1.7s-1,2.2-0.5,2.7l0.3,0.3
			c0.8,0.8,2.9,2.9,3.1,3.1c0.3,0.5,0.4,1.1,0.2,1.6c0,0.6-0.3,1.1-0.7,1.4c-0.2,0.2-3,1.6-4.3,2.3c-0.9,0.5-0.4,2.4-0.3,2.8
			s0.6,2.3,1.6,2.3c1.4,0,4.6,0,4.9,0c0.5,0.1,1,0.5,1.3,1c0.4,0.4,0.6,1,0.5,1.5c-0.1,0.3-0.9,3.1-1.3,4.2l-0.1,0.4
			c-0.2,0.7,0.7,1.6,1.7,2.2s2.2,1,2.8,0.5l0.2-0.3c0.7-0.7,3-3,3.2-3.2c1-0.5,2.2-0.3,3,0.5c0.2,0.2,1.6,3,2.3,4.3
			c0.5,0.9,2.4,0.4,2.8,0.3s2.2-0.6,2.3-1.6c0-1.3,0-4.5,0-4.9c0.1-0.5,0.5-1,0.9-1.3c0.4-0.4,1-0.6,1.6-0.5c0.3,0.1,3.3,1,4.3,1.3
			l0.4,0.1c0.7,0.2,1.6-0.7,2.2-1.7s1-2.2,0.5-2.7l-0.3-0.3c-0.8-0.8-2.9-2.9-3.1-3.1c-0.3-0.5-0.4-1.1-0.2-1.6
			c0-0.6,0.3-1.1,0.7-1.5c0.2-0.2,3-1.6,4.3-2.3c0.9-0.5,0.4-2.4,0.3-2.8S64.5,12.1,63.5,12.1z M48.8,27.2
			c-4.6,1.1-9.2-1.6-10.3-6.2c-1.1-4.6,1.6-9.2,6.2-10.3s9.2,1.6,10.3,6.2c0,0,0,0,0,0C56.2,21.4,53.4,26.1,48.8,27.2z"/>
	</g>
</g>
</svg>
